<?xml-stylesheet href="https://cdnjs.cloudflare.com/ajax/libs/font-awesome/6.6.0/css/all.min.css" type="text/css"?><svg xmlns="http://www.w3.org/2000/svg" xmlns:xlink="http://www.w3.org/1999/xlink" id="graph-div" width="100%" height="100%" aria-roledescription="flowchart-v2" role="graphics-document document" viewBox="-8 -8 460.664 993" style="max-width:100%"><style>#graph-div{font-family:&quot;trebuchet ms&quot;,verdana,arial,sans-serif;font-size:16px;fill:#333}#graph-div .edge-thickness-normal{stroke-width:2px}#graph-div .edge-pattern-solid{stroke-dasharray:0}#graph-div .marker{fill:#333;stroke:#333}#graph-div .marker.cross{stroke:#333}#graph-div .label,#graph-div svg{font-family:&quot;trebuchet ms&quot;,verdana,arial,sans-serif}#graph-div svg{font-size:16px}#graph-div .label{color:#333}#graph-div span{fill:#333;color:#333}#graph-div .node circle,#graph-div .node path,#graph-div .node polygon,#graph-div .node rect{fill:#ececff;stroke:#9370db;stroke-width:1px}#graph-div .node .label{text-align:center}#graph-div .flowchart-link{stroke:#333;fill:none}#graph-div .edgeLabel{background-color:#e8e8e8;text-align:center}#graph-div .edgeLabel rect{opacity:.5;background-color:#e8e8e8;fill:#e8e8e8}#graph-div :root{--mermaid-font-family:&quot;trebuchet ms&quot;,verdana,arial,sans-serif}</style><g><marker id="graph-div_flowchart-pointEnd" class="marker flowchart" markerHeight="12" markerUnits="userSpaceOnUse" markerWidth="12" orient="auto" refX="6" refY="5" viewBox="0 0 10 10"><path style="stroke-width:1;stroke-dasharray:1,0" d="M 0 0 L 10 5 L 0 10 z" class="arrowMarkerPath"/></marker><marker id="graph-div_flowchart-pointStart" class="marker flowchart" markerHeight="12" markerUnits="userSpaceOnUse" markerWidth="12" orient="auto" refX="4.5" refY="5" viewBox="0 0 10 10"><path style="stroke-width:1;stroke-dasharray:1,0" d="M 0 5 L 10 10 L 10 0 z" class="arrowMarkerPath"/></marker><marker id="graph-div_flowchart-circleEnd" class="marker flowchart" markerHeight="11" markerUnits="userSpaceOnUse" markerWidth="11" orient="auto" refX="11" refY="5" viewBox="0 0 10 10"><circle style="stroke-width:1;stroke-dasharray:1,0" cx="5" cy="5" r="5" class="arrowMarkerPath"/></marker><marker id="graph-div_flowchart-circleStart" class="marker flowchart" markerHeight="11" markerUnits="userSpaceOnUse" markerWidth="11" orient="auto" refX="-1" refY="5" viewBox="0 0 10 10"><circle style="stroke-width:1;stroke-dasharray:1,0" cx="5" cy="5" r="5" class="arrowMarkerPath"/></marker><marker id="graph-div_flowchart-crossEnd" class="marker cross flowchart" markerHeight="11" markerUnits="userSpaceOnUse" markerWidth="11" orient="auto" refX="12" refY="5.2" viewBox="0 0 11 11"><path style="stroke-width:2;stroke-dasharray:1,0" d="M 1,1 l 9,9 M 10,1 l -9,9" class="arrowMarkerPath"/></marker><marker id="graph-div_flowchart-crossStart" class="marker cross flowchart" markerHeight="11" markerUnits="userSpaceOnUse" markerWidth="11" orient="auto" refX="-1" refY="5.2" viewBox="0 0 11 11"><path style="stroke-width:2;stroke-dasharray:1,0" d="M 1,1 l 9,9 M 10,1 l -9,9" class="arrowMarkerPath"/></marker><g class="root"><g class="edgePaths"><path marker-end="url(#graph-div_flowchart-pointEnd)" style="fill:none" id="L-InitialHlo-HloPasses-0" d="M230.543,39L230.543,43.167C230.543,47.333,230.543,55.667,230.609,63.2C230.675,70.734,230.807,77.467,230.873,80.834L230.939,84.201" class="edge-thickness-normal edge-pattern-solid flowchart-link LS-InitialHlo LE-HloPasses"/><path marker-end="url(#graph-div_flowchart-pointEnd)" style="fill:none" id="L-HloPasses-OptimizedHlo-0" d="M231.043,152.5L230.96,156.583C230.876,160.667,230.71,168.833,230.626,176.2C230.543,183.567,230.543,190.133,230.543,193.417L230.543,196.7" class="edge-thickness-normal edge-pattern-solid flowchart-link LS-HloPasses LE-OptimizedHlo"/><path marker-end="url(#graph-div_flowchart-pointEnd)" style="fill:none" id="L-OptimizedHlo-BufferAssigner-0" d="M285.06,241L296.709,245.167C308.358,249.333,331.655,257.667,343.37,265.2C355.085,272.734,355.217,279.467,355.283,282.834L355.349,286.201" class="edge-thickness-normal edge-pattern-solid flowchart-link LS-OptimizedHlo LE-BufferAssigner"/><path marker-end="url(#graph-div_flowchart-pointEnd)" style="fill:none" id="L-BufferAssigner-BufferAssignment-0" d="M355.453,330.5L355.37,334.583C355.286,338.667,355.12,346.833,355.036,354.2C354.953,361.567,354.953,368.133,354.953,371.417L354.953,374.7" class="edge-thickness-normal edge-pattern-solid flowchart-link LS-BufferAssigner LE-BufferAssignment"/><path marker-end="url(#graph-div_flowchart-pointEnd)" style="fill:none" id="L-OptimizedHlo-ThunkEmitter-0" d="M201.023,241L194.715,245.167C188.407,249.333,175.791,257.667,169.484,269.25C163.176,280.833,163.176,295.667,163.176,310.5C163.176,325.333,163.176,340.167,163.176,355C163.176,369.833,163.176,384.667,163.176,399.5C163.176,414.333,163.176,429.167,163.989,439.974C164.803,450.782,166.43,457.564,167.244,460.955L168.057,464.346" class="edge-thickness-normal edge-pattern-solid flowchart-link LS-OptimizedHlo LE-ThunkEmitter"/><path marker-end="url(#graph-div_flowchart-pointEnd)" style="fill:none" id="L-BufferAssignment-ThunkEmitter-0" d="M329.815,419L324.443,423.167C319.072,427.333,308.329,435.667,292.221,443.779C276.113,451.891,254.64,459.781,243.904,463.727L233.167,467.672" class="edge-thickness-normal edge-pattern-solid flowchart-link LS-BufferAssignment LE-ThunkEmitter"/><path marker-end="url(#graph-div_flowchart-pointEnd)" style="fill:none" id="L-ThunkEmitter-ThunkSequence-0" d="M211.017,508.5L218.913,512.583C226.808,516.667,242.599,524.833,250.495,536.333C258.391,547.833,258.391,562.667,258.391,577.5C258.391,592.333,258.391,607.167,258.391,622C258.391,636.833,258.391,651.667,258.391,666.5C258.391,681.333,258.391,696.167,258.391,708.867C258.391,721.567,258.391,732.133,258.391,737.417L258.391,742.7" class="edge-thickness-normal edge-pattern-solid flowchart-link LS-ThunkEmitter LE-ThunkSequence"/><path marker-end="url(#graph-div_flowchart-pointEnd)" style="fill:none" id="L-ThunkEmitter-LlvmIr-0" d="M136.334,508.5L128.272,512.583C120.21,516.667,104.085,524.833,96.023,532.2C87.961,539.567,87.961,546.133,87.961,549.417L87.961,552.7" class="edge-thickness-normal edge-pattern-solid flowchart-link LS-ThunkEmitter LE-LlvmIr"/><path marker-end="url(#graph-div_flowchart-pointEnd)" style="fill:none" id="L-LlvmIr-LlvmCompiler-0" d="M87.961,597L87.961,601.167C87.961,605.333,87.961,613.667,88.027,621.2C88.093,628.734,88.225,635.467,88.291,638.834L88.357,642.201" class="edge-thickness-normal edge-pattern-solid flowchart-link LS-LlvmIr LE-LlvmCompiler"/><path marker-end="url(#graph-div_flowchart-pointEnd)" style="fill:none" id="L-LlvmCompiler-MachineCode-0" d="M88.461,686.5L88.378,690.583C88.294,694.667,88.128,702.833,88.044,710.2C87.961,717.567,87.961,724.133,87.961,727.417L87.961,730.7" class="edge-thickness-normal edge-pattern-solid flowchart-link LS-LlvmCompiler LE-MachineCode"/><path marker-end="url(#graph-div_flowchart-pointEnd)" style="fill:none" id="L-MachineCode-ExecutableBuilder-0" d="M87.961,799L87.961,803.167C87.961,807.333,87.961,815.667,103.148,823.857C118.336,832.048,148.71,840.095,163.897,844.119L179.085,848.143" class="edge-thickness-normal edge-pattern-solid flowchart-link LS-MachineCode LE-ExecutableBuilder"/><path marker-end="url(#graph-div_flowchart-pointEnd)" style="fill:none" id="L-ThunkSequence-ExecutableBuilder-0" d="M258.391,787L258.391,793.167C258.391,799.333,258.391,811.667,258.457,821.2C258.523,830.734,258.655,837.467,258.721,840.834L258.787,844.201" class="edge-thickness-normal edge-pattern-solid flowchart-link LS-ThunkSequence LE-ExecutableBuilder"/><path marker-end="url(#graph-div_flowchart-pointEnd)" style="fill:none" id="L-BufferAssignment-ExecutableBuilder-0" d="M359.335,419L360.271,423.167C361.208,427.333,363.08,435.667,364.017,447.25C364.953,458.833,364.953,473.667,364.953,488.5C364.953,503.333,364.953,518.167,364.953,533C364.953,547.833,364.953,562.667,364.953,577.5C364.953,592.333,364.953,607.167,364.953,622C364.953,636.833,364.953,651.667,364.953,666.5C364.953,681.333,364.953,696.167,364.953,713C364.953,729.833,364.953,748.667,364.953,767.5C364.953,786.333,364.953,805.167,355.87,818.485C346.788,831.803,328.622,839.606,319.539,843.507L310.456,847.408" class="edge-thickness-normal edge-pattern-solid flowchart-link LS-BufferAssignment LE-ExecutableBuilder"/><path marker-end="url(#graph-div_flowchart-pointEnd)" style="fill:none" id="L-ExecutableBuilder-Executable-0" d="M258.891,888.5L258.807,892.583C258.724,896.667,258.557,904.833,258.474,912.2C258.391,919.567,258.391,926.133,258.391,929.417L258.391,932.7" class="edge-thickness-normal edge-pattern-solid flowchart-link LS-ExecutableBuilder LE-Executable"/></g><g class="edgeLabels"><g class="edgeLabel"><g class="label" transform="translate(0, 0)"><foreignObject width="0" height="0"><div xmlns="http://www.w3.org/1999/xhtml" style="display:inline-block;white-space:nowrap"><span class="edgeLabel"/></div></foreignObject></g></g><g class="edgeLabel"><g class="label" transform="translate(0, 0)"><foreignObject width="0" height="0"><div xmlns="http://www.w3.org/1999/xhtml" style="display:inline-block;white-space:nowrap"><span class="edgeLabel"/></div></foreignObject></g></g><g class="edgeLabel"><g class="label" transform="translate(0, 0)"><foreignObject width="0" height="0"><div xmlns="http://www.w3.org/1999/xhtml" style="display:inline-block;white-space:nowrap"><span class="edgeLabel"/></div></foreignObject></g></g><g class="edgeLabel"><g class="label" transform="translate(0, 0)"><foreignObject width="0" height="0"><div xmlns="http://www.w3.org/1999/xhtml" style="display:inline-block;white-space:nowrap"><span class="edgeLabel"/></div></foreignObject></g></g><g class="edgeLabel"><g class="label" transform="translate(0, 0)"><foreignObject width="0" height="0"><div xmlns="http://www.w3.org/1999/xhtml" style="display:inline-block;white-space:nowrap"><span class="edgeLabel"/></div></foreignObject></g></g><g class="edgeLabel"><g class="label" transform="translate(0, 0)"><foreignObject width="0" height="0"><div xmlns="http://www.w3.org/1999/xhtml" style="display:inline-block;white-space:nowrap"><span class="edgeLabel"/></div></foreignObject></g></g><g class="edgeLabel"><g class="label" transform="translate(0, 0)"><foreignObject width="0" height="0"><div xmlns="http://www.w3.org/1999/xhtml" style="display:inline-block;white-space:nowrap"><span class="edgeLabel"/></div></foreignObject></g></g><g class="edgeLabel"><g class="label" transform="translate(0, 0)"><foreignObject width="0" height="0"><div xmlns="http://www.w3.org/1999/xhtml" style="display:inline-block;white-space:nowrap"><span class="edgeLabel"/></div></foreignObject></g></g><g class="edgeLabel"><g class="label" transform="translate(0, 0)"><foreignObject width="0" height="0"><div xmlns="http://www.w3.org/1999/xhtml" style="display:inline-block;white-space:nowrap"><span class="edgeLabel"/></div></foreignObject></g></g><g class="edgeLabel"><g class="label" transform="translate(0, 0)"><foreignObject width="0" height="0"><div xmlns="http://www.w3.org/1999/xhtml" style="display:inline-block;white-space:nowrap"><span class="edgeLabel"/></div></foreignObject></g></g><g class="edgeLabel"><g class="label" transform="translate(0, 0)"><foreignObject width="0" height="0"><div xmlns="http://www.w3.org/1999/xhtml" style="display:inline-block;white-space:nowrap"><span class="edgeLabel"/></div></foreignObject></g></g><g class="edgeLabel"><g class="label" transform="translate(0, 0)"><foreignObject width="0" height="0"><div xmlns="http://www.w3.org/1999/xhtml" style="display:inline-block;white-space:nowrap"><span class="edgeLabel"/></div></foreignObject></g></g><g class="edgeLabel"><g class="label" transform="translate(0, 0)"><foreignObject width="0" height="0"><div xmlns="http://www.w3.org/1999/xhtml" style="display:inline-block;white-space:nowrap"><span class="edgeLabel"/></div></foreignObject></g></g><g class="edgeLabel"><g class="label" transform="translate(0, 0)"><foreignObject width="0" height="0"><div xmlns="http://www.w3.org/1999/xhtml" style="display:inline-block;white-space:nowrap"><span class="edgeLabel"/></div></foreignObject></g></g></g><g class="nodes"><g id="flowchart-InitialHlo-3111" class="node default flowchart-label" data-id="InitialHlo" data-node="true" transform="translate(230.54296875, 19.5)"><rect width="139.781" height="39" x="-69.891" y="-19.5" class="basic label-container" rx="5" ry="5"/><g class="label" transform="translate(-62.390625, -12)"><rect/><foreignObject width="124.781" height="24"><div xmlns="http://www.w3.org/1999/xhtml" style="display:inline-block;white-space:nowrap"><span class="nodeLabel">Unoptimized HLO</span></div></foreignObject></g></g><g id="flowchart-OptimizedHlo-3112" class="node default flowchart-label" data-id="OptimizedHlo" data-node="true" transform="translate(230.54296875, 221.5)"><rect width="230.438" height="39" x="-115.219" y="-19.5" class="basic label-container" rx="5" ry="5"/><g class="label" transform="translate(-107.71875, -12)"><rect/><foreignObject width="215.438" height="24"><div xmlns="http://www.w3.org/1999/xhtml" style="display:inline-block;white-space:nowrap"><span class="nodeLabel">Optimized and scheduled HLO</span></div></foreignObject></g></g><g id="flowchart-BufferAssignment-3113" class="node default flowchart-label" data-id="BufferAssignment" data-node="true" transform="translate(354.953125, 399.5)"><rect width="140.391" height="39" x="-70.195" y="-19.5" class="basic label-container" rx="5" ry="5"/><g class="label" transform="translate(-62.6953125, -12)"><rect/><foreignObject width="125.391" height="24"><div xmlns="http://www.w3.org/1999/xhtml" style="display:inline-block;white-space:nowrap"><span class="nodeLabel">BufferAssignment</span></div></foreignObject></g></g><g id="flowchart-ThunkSequence-3114" class="node default flowchart-label" data-id="ThunkSequence" data-node="true" transform="translate(258.390625, 767.5)"><rect width="126.781" height="39" x="-63.391" y="-19.5" class="basic label-container" rx="5" ry="5"/><g class="label" transform="translate(-55.890625, -12)"><rect/><foreignObject width="111.781" height="24"><div xmlns="http://www.w3.org/1999/xhtml" style="display:inline-block;white-space:nowrap"><span class="nodeLabel">ThunkSequence</span></div></foreignObject></g></g><g id="flowchart-LlvmIr-3115" class="node default flowchart-label" data-id="LlvmIr" data-node="true" transform="translate(87.9609375, 577.5)"><rect width="68.328" height="39" x="-34.164" y="-19.5" class="basic label-container" rx="5" ry="5"/><g class="label" transform="translate(-26.6640625, -12)"><rect/><foreignObject width="53.328" height="24"><div xmlns="http://www.w3.org/1999/xhtml" style="display:inline-block;white-space:nowrap"><span class="nodeLabel">LLVM IR</span></div></foreignObject></g></g><g id="flowchart-MachineCode-3116" class="node default flowchart-label" data-id="MachineCode" data-node="true" transform="translate(87.9609375, 767.5)"><rect width="114.078" height="63" x="-57.039" y="-31.5" class="basic label-container" rx="5" ry="5"/><g class="label" transform="translate(-49.5390625, -24)"><rect/><foreignObject width="99.078" height="48"><div xmlns="http://www.w3.org/1999/xhtml" style="display:inline-block;white-space:nowrap"><span class="nodeLabel">Machine Code<br/><i>PTX, obj, ..</i></span></div></foreignObject></g></g><g id="flowchart-Executable-3117" class="node default flowchart-label" data-id="Executable" data-node="true" transform="translate(258.390625, 957.5)"><rect width="94.094" height="39" x="-47.047" y="-19.5" class="basic label-container" rx="5" ry="5"/><g class="label" transform="translate(-39.546875, -12)"><rect/><foreignObject width="79.094" height="24"><div xmlns="http://www.w3.org/1999/xhtml" style="display:inline-block;white-space:nowrap"><span class="nodeLabel">Executable</span></div></foreignObject></g></g><g id="flowchart-HloPasses-3118" class="node default flowchart-label" data-id="HloPasses" data-node="true" transform="translate(230.54296875, 120.5)"><polygon points="0 0 160.938 0 160.938 -63 0 -63 0 0 -8 0 168.938 0 168.938 -63 -8 -63 -8 0" class="label-container" transform="translate(-80.46875,31.5)"/><g class="label" transform="translate(-72.96875, -24)"><rect/><foreignObject width="145.938" height="48"><div xmlns="http://www.w3.org/1999/xhtml" style="display:inline-block;white-space:nowrap"><span class="nodeLabel">1. HLO Optimization<br/>&amp; Scheduling</span></div></foreignObject></g></g><g id="flowchart-BufferAssigner-3119" class="node default flowchart-label" data-id="BufferAssigner" data-node="true" transform="translate(354.953125, 310.5)"><polygon points="0 0 163.422 0 163.422 -39 0 -39 0 0 -8 0 171.422 0 171.422 -39 -8 -39 -8 0" class="label-container" transform="translate(-81.7109375,19.5)"/><g class="label" transform="translate(-74.2109375, -12)"><rect/><foreignObject width="148.422" height="24"><div xmlns="http://www.w3.org/1999/xhtml" style="display:inline-block;white-space:nowrap"><span class="nodeLabel">2. Buffer Assignment</span></div></foreignObject></g></g><g id="flowchart-ThunkEmitter-3120" class="node default flowchart-label" data-id="ThunkEmitter" data-node="true" transform="translate(173.17578125, 488.5)"><polygon points="0 0 143.469 0 143.469 -39 0 -39 0 0 -8 0 151.469 0 151.469 -39 -8 -39 -8 0" class="label-container" transform="translate(-71.734375,19.5)"/><g class="label" transform="translate(-64.234375, -12)"><rect/><foreignObject width="128.469" height="24"><div xmlns="http://www.w3.org/1999/xhtml" style="display:inline-block;white-space:nowrap"><span class="nodeLabel">3. Thunk Emission</span></div></foreignObject></g></g><g id="flowchart-LlvmCompiler-3121" class="node default flowchart-label" data-id="LlvmCompiler" data-node="true" transform="translate(87.9609375, 666.5)"><polygon points="0 0 159.922 0 159.922 -39 0 -39 0 0 -8 0 167.922 0 167.922 -39 -8 -39 -8 0" class="label-container" transform="translate(-79.9609375,19.5)"/><g class="label" transform="translate(-72.4609375, -12)"><rect/><foreignObject width="144.922" height="24"><div xmlns="http://www.w3.org/1999/xhtml" style="display:inline-block;white-space:nowrap"><span class="nodeLabel">4. LLVM Compilation</span></div></foreignObject></g></g><g id="flowchart-ExecutableBuilder-3122" class="node default flowchart-label" data-id="ExecutableBuilder" data-node="true" transform="translate(258.390625, 868.5)"><polygon points="0 0 179.156 0 179.156 -39 0 -39 0 0 -8 0 187.156 0 187.156 -39 -8 -39 -8 0" class="label-container" transform="translate(-89.578125,19.5)"/><g class="label" transform="translate(-82.078125, -12)"><rect/><foreignObject width="164.156" height="24"><div xmlns="http://www.w3.org/1999/xhtml" style="display:inline-block;white-space:nowrap"><span class="nodeLabel">5. Executable Creation</span></div></foreignObject></g></g></g></g></g></svg>